<?xml version="1.0" encoding="UTF-8" standalone="no"?>
<!DOCTYPE svg PUBLIC "-//W3C//DTD SVG 1.1//EN" "http://www.w3.org/Graphics/SVG/1.1/DTD/svg11.dtd">
<svg width="100%" height="100%" viewBox="0 0 2481 458" version="1.1" xmlns="http://www.w3.org/2000/svg" xmlns:xlink="http://www.w3.org/1999/xlink" xml:space="preserve" style="fill-rule:evenodd;clip-rule:evenodd;stroke-linejoin:round;stroke-miterlimit:1.41421;">
    <g transform="matrix(4.16667,0,0,4.16667,-0.00229167,1.32625)">
        <g >
            <g>
                <g transform="matrix(1,0,0,1,21.3799,77.8864)">
                    <path d="M0,-46.542L9.839,-46.542L37.04,-7.516L64.242,-46.542L74.083,-46.542L74.083,0L67.781,0L67.781,-40.888L67.651,-40.888L39.291,0L34.79,0L6.431,-40.888L6.301,-40.888L6.301,0L0,0L0,-46.542Z" style="fill:rgb(225,39,52);fill-rule:nonzero;"/>
                </g>
                <g transform="matrix(1,0,0,1,0,-39.299)">
                    <rect x="107.614" y="70.643" width="6.304" height="46.542" style="fill:rgb(225,39,52);"/>
                </g>
                <g transform="matrix(1,0,0,1,126.071,77.8864)">
                    <path d="M0,-46.542L9.386,-46.542L52.024,-5.654L52.024,-46.542L58.324,-46.542L58.324,0L48.937,0L6.301,-40.888L6.301,0L0,0L0,-46.542Z" style="fill:rgb(225,39,52);fill-rule:nonzero;"/>
                </g>
                <g transform="matrix(1,0,0,1,218.799,77.8864)">
                    <path d="M0,-46.542L7.847,-46.542L35.495,0L28.356,0L22.572,-9.834L-14.727,-9.834L-20.514,0L-27.651,0L0,-46.542ZM3.924,-41.404L-11.704,-14.976L19.549,-14.976L3.924,-41.404Z" style="fill:rgb(225,39,52);fill-rule:nonzero;"/>
                </g>
                <g transform="matrix(1,0,0,1,260.272,45.9986)">
                    <path d="M0,17.234L5.92,17.234L5.92,20.514C5.92,25.075 8.36,27.266 16.204,27.266L35.759,27.266C44.89,27.266 47.595,25.33 47.595,18.645C47.595,12.796 45.279,11.319 37.428,11.319L25.463,11.319C6.244,11.319 -0.058,10.161 -0.058,-2.183C-0.058,-12.792 6.244,-15.167 19.232,-15.167L32.794,-15.167C48.422,-15.167 52.351,-11.185 52.351,-2.889L52.351,-1.284L46.437,-1.284C46.301,-8.675 45.53,-10.023 29.01,-10.023L22.318,-10.023C10.166,-10.023 5.856,-9.38 5.856,-1.734C5.856,3.797 7.597,5.661 17.433,5.661L36.076,5.661C48.363,5.661 53.503,9.193 53.503,17.106L53.503,20.128C53.503,31.571 44.121,32.401 34.788,32.401L17.296,32.401C8.107,32.401 0,30.798 0,20.639L0,17.234Z" style="fill:rgb(225,39,52);fill-rule:nonzero;"/>
                </g>
                <g transform="matrix(1,0,0,1,323.682,60.9807)">
                    <path d="M0,-12.731C0,-24.499 3.994,-30.149 16.592,-30.149L40.703,-30.149C52.158,-30.149 55.301,-24.815 55.301,-18.58L55.301,-14.595L49.774,-14.595L49.774,-16.716C49.774,-24.621 44.884,-25.005 39.097,-25.005L17.233,-25.005C11.195,-25.005 6.296,-23.204 6.296,-15.107L6.296,2.378C6.296,10.482 11.195,12.284 17.233,12.284L39.291,12.284C47.774,12.284 50.229,10.482 50.229,4.182L50.229,1.287L56.142,1.287L56.142,4.436C56.142,12.859 53.443,17.418 40.387,17.418L16.592,17.418C3.994,17.418 0,11.764 0,0.002L0,-12.731Z" style="fill:rgb(137,135,140);fill-rule:nonzero;"/>
                </g>
                <g transform="matrix(1,0,0,1,458.854,77.8864)">
                    <path d="M0,-46.542L38.327,-46.542C46.817,-46.542 51.638,-44.743 51.638,-33.876C51.638,-23.526 50.804,-18.32 37.104,-18.32L6.298,-18.32L6.298,0L0,0L0,-46.542ZM45.336,-34.52C45.336,-40.05 42.313,-41.404 36.845,-41.404L6.298,-41.404L6.298,-23.464L37.364,-23.464C42.38,-23.464 45.336,-25.263 45.336,-30.082L45.336,-34.52Z" style="fill:rgb(137,135,140);fill-rule:nonzero;"/>
                </g>
                <g transform="matrix(1,0,0,1,540.906,51.0114)">
                    <path d="M0,7.208L-26.686,-19.667L-18.196,-19.667L3.152,1.935L24.5,-19.667L32.99,-19.667L6.309,7.208L6.309,26.875L0,26.875L0,7.208Z" style="fill:rgb(137,135,140);fill-rule:nonzero;"/>
                </g>
                <g transform="matrix(1,0,0,1,413.86,71.9477)">
                    <path d="M0,-35.572L0,-0.413C0,3.859 6.646,4.516 6.646,0.214L6.646,-34.941C6.646,-39.215 0,-39.87 0,-35.572M7.812,-55.965L41.532,-22.245C43.985,-19.793 43.985,-15.778 41.532,-13.325L7.812,20.393C5.359,22.846 1.346,22.846 -1.106,20.393L-34.828,-13.325C-37.279,-15.778 -37.279,-19.793 -34.828,-22.245L-1.106,-55.965C1.346,-58.418 5.359,-58.418 7.812,-55.965M6.855,-47.784L33.351,-21.29C35.278,-19.362 35.278,-16.209 33.351,-14.281L6.855,12.212C4.93,14.14 1.776,14.14 -0.151,12.212L-26.646,-14.281C-28.571,-16.209 -28.571,-19.362 -26.646,-21.29L-0.151,-47.784C1.775,-49.71 4.931,-49.71 6.855,-47.784" style="fill:rgb(225,39,52);"/>
                </g>
            </g>
        </g>
    </g>
</svg>

